<svg xmlns="http://www.w3.org/2000/svg" width="200" height="45.669" viewBox="0 0 200 45.669">
  <g id="Group_2" data-name="Group 2" transform="translate(-15 -48.665)">
    <g id="Layer_1" transform="translate(15 48.665)">
      <g id="layer">
        <path id="Path_1" data-name="Path 1" d="M52.483,13.793V31.756h3.974V24.794H65v-3.58H56.457V17.405h9.721V13.793Z" fill="#fff"/>
        <path id="Path_2" data-name="Path 2" d="M74.847,18.423l2.4,5.813H72.483l2.364-5.813Zm-1.741-4.762L65.422,31.756h4.006l1.642-4.006h7.586L80.3,31.756h4.138L76.752,13.661H73.107Z" fill="#fff"/>
        <path id="Path_3" data-name="Path 3" d="M98.295,13.793V24.86l-8.44-11.067H86.243V31.756h3.875V20.328l8.7,11.428H102.2V13.793Z" fill="#fff"/>
        <path id="Path_4" data-name="Path 4" d="M104.961,29.129l2.332-2.791a8.326,8.326,0,0,0,5.353,2.167c2.036,0,2.562-.624,2.562-1.708h0c0-1.051-.624-1.576-3.612-2.332-3.612-.92-5.944-1.9-5.944-5.484h0c0-3.317,2.627-5.451,6.272-5.451s4.86.821,6.666,2.3l-2.069,2.988a8.286,8.286,0,0,0-4.663-1.773c-1.511,0-2.332.69-2.332,1.576h0c0,1.215.788,1.609,3.875,2.4,3.645.952,5.681,2.233,5.681,5.386h0c0,3.612-2.726,5.616-6.6,5.616a11.354,11.354,0,0,1-7.619-2.857" fill="#fff"/>
        <path id="Path_5" data-name="Path 5" d="M122.3,13.793h3.941v7.093h7.29V13.793h3.941V31.756h-3.941V24.531h-7.29v7.225H122.3Z" fill="#fff"/>
        <path id="Path_6" data-name="Path 6" d="M147.325,13.661h3.645l7.685,18.095h-4.138l-1.642-4.006h-7.586l-1.642,4.006H139.64l7.685-18.095h0Zm4.138,10.574-2.4-5.813-2.4,5.813h4.795Z" fill="#fff"/>
        <path id="Path_7" data-name="Path 7" d="M156.848,13.793h4.236L164.8,25.944,168.8,13.76h3.383l4.039,12.184,3.711-12.151h4.138l-6.141,18.095h-3.448l-4.039-11.757L166.4,31.888h-3.448Z" fill="#fff"/>
        <path id="Path_8" data-name="Path 8" d="M186.339,13.793H199.9v3.514h-9.622v3.645h8.44v3.514h-8.44v3.744H200v3.547H186.339Z" fill="#fff"/>
      </g>
      <g id="Layer_1-2">
        <g id="Group_1" data-name="Group 1">
          <path id="Path_9" data-name="Path 9" d="M8.29,12.607l8.315,8.307a.5.5,0,0,0,.334.134.527.527,0,0,0,.382-.187l5.426-5.426,8.481-8.473.018-.018a1.294,1.294,0,0,0,.484-.911V.214A.212.212,0,0,0,31.516,0a.23.23,0,0,0-.165.074L22.75,8.7,14.15.072a.215.215,0,0,0-.211-.063.221.221,0,0,0-.166.2s0,5.736,0,5.745a1.139,1.139,0,0,0,.371.841l0,0L19.4,12.047h0l-2.461,2.459L8.3,5.861a.208.208,0,0,0-.2-.061.22.22,0,0,0-.167.184l.013,5.724a1.183,1.183,0,0,0,.352.9" fill="#fff"/>
          <path id="Path_10" data-name="Path 10" d="M21.047,28.661a.538.538,0,0,0-.185-.383l-5.427-5.427L6.962,14.372l-.017-.018a1.294,1.294,0,0,0-.911-.486H.215A.214.214,0,0,0,0,14.085a.242.242,0,0,0,.074.165L8.7,22.85l-8.623,8.6a.22.22,0,0,0-.064.213.224.224,0,0,0,.2.165l5.746,0a1.143,1.143,0,0,0,.841-.371l0,0L12.047,26.2h0l2.458,2.461L5.864,37.3a.213.213,0,0,0-.064.205.221.221,0,0,0,.187.166l5.723-.012a1.182,1.182,0,0,0,.9-.352l8.308-8.317a.489.489,0,0,0,.132-.332" fill="#fff"/>
          <path id="Path_11" data-name="Path 11" d="M37.278,33.063l-8.315-8.307a.49.49,0,0,0-.333-.134.531.531,0,0,0-.383.186l-5.428,5.426-8.48,8.474-.017.017a1.3,1.3,0,0,0-.486.91v5.819a.213.213,0,0,0,.217.215.227.227,0,0,0,.164-.075l8.6-8.621,8.6,8.623a.218.218,0,0,0,.213.064.224.224,0,0,0,.164-.2s0-5.735,0-5.747a1.141,1.141,0,0,0-.369-.839h0l-5.255-5.255h0l2.461-2.458,8.642,8.645a.214.214,0,0,0,.2.062.219.219,0,0,0,.168-.186l-.011-5.723a1.191,1.191,0,0,0-.355-.9" fill="#fff"/>
          <path id="Path_12" data-name="Path 12" d="M45.606,31.416l-8.622-8.6,8.624-8.6A.214.214,0,0,0,45.671,14a.222.222,0,0,0-.2-.165l-5.746,0a1.148,1.148,0,0,0-.84.371v0l-5.255,5.254v0L31.173,17l8.645-8.642a.208.208,0,0,0,.061-.2.224.224,0,0,0-.186-.169L33.971,8a1.191,1.191,0,0,0-.9.352l-8.307,8.316a.5.5,0,0,0-.133.333.535.535,0,0,0,.185.383l5.426,5.428,8.474,8.48.017.018a1.3,1.3,0,0,0,.912.485h5.82a.212.212,0,0,0,.213-.217.231.231,0,0,0-.074-.165" fill="#fff"/>
        </g>
      </g>
    </g>
  </g>
</svg>
