<svg xmlns="http://www.w3.org/2000/svg" xmlns:xlink="http://www.w3.org/1999/xlink" width="30" height="30" viewBox="0 0 30 30">
  <defs>
    <clipPath id="clip-path">
      <rect id="Rectangle_45" data-name="Rectangle 45" width="30" height="30" transform="translate(815.251 7366.251)"/>
    </clipPath>
  </defs>
  <g id="Mask_Group_3" data-name="Mask Group 3" transform="translate(-815.251 -7366.251)" clip-path="url(#clip-path)">
    <g id="SVGRepo_iconCarrier" transform="translate(815 7366)">
      <path id="Path_33" data-name="Path 33" d="M27.41,35.729a8.319,8.319,0,1,0-8.319-8.319A8.319,8.319,0,0,0,27.41,35.729Zm0-2.773a5.546,5.546,0,1,0-5.546-5.546A5.546,5.546,0,0,0,27.41,32.956Z" transform="translate(-12.158 -12.158)" fill-rule="evenodd"/>
      <path id="Path_34" data-name="Path 34" d="M55.477,15.909A1.386,1.386,0,1,0,56.864,17.3,1.386,1.386,0,0,0,55.477,15.909Z" transform="translate(-31.907 -10.363)"/>
      <path id="Path_35" data-name="Path 35" d="M4.089,7.724c-.907,1.78-.907,4.109-.907,8.768v3.882c0,4.659,0,6.989.907,8.768a8.318,8.318,0,0,0,3.636,3.636c1.78.907,4.109.907,8.768.907h3.882c4.659,0,6.989,0,8.768-.907a8.318,8.318,0,0,0,3.636-3.636c.907-1.779.907-4.109.907-8.768V16.492c0-4.659,0-6.989-.907-8.768a8.318,8.318,0,0,0-3.636-3.636c-1.779-.907-4.109-.907-8.768-.907H16.492c-4.659,0-6.989,0-8.768.907A8.319,8.319,0,0,0,4.089,7.724ZM20.374,5.955H16.492c-2.375,0-3.99,0-5.238.1a5.985,5.985,0,0,0-2.271.5A5.546,5.546,0,0,0,6.559,8.983a5.985,5.985,0,0,0-.5,2.271c-.1,1.248-.1,2.863-.1,5.238v3.882c0,2.375,0,3.99.1,5.238a5.985,5.985,0,0,0,.5,2.271,5.546,5.546,0,0,0,2.424,2.424,5.983,5.983,0,0,0,2.271.5c1.248.1,2.863.1,5.238.1h3.882c2.375,0,3.99,0,5.238-.1a5.983,5.983,0,0,0,2.271-.5,5.546,5.546,0,0,0,2.424-2.424,5.983,5.983,0,0,0,.5-2.271c.1-1.248.1-2.863.1-5.238V16.492c0-2.375,0-3.99-.1-5.238a5.983,5.983,0,0,0-.5-2.271,5.546,5.546,0,0,0-2.424-2.424,5.985,5.985,0,0,0-2.271-.5C24.364,5.957,22.75,5.955,20.374,5.955Z" transform="translate(-3.182 -3.182)" fill-rule="evenodd"/>
    </g>
  </g>
</svg>
